<svg xmlns="http://www.w3.org/2000/svg" viewBox="0 0 500 500"><g id="freepik--Shadow--inject-77"><ellipse id="freepik--path--inject-77" cx="250" cy="416.24" rx="193.89" ry="11.32" style="fill:#f5f5f5"></ellipse></g><g id="freepik--Lamp--inject-77"><path d="M96.11,336.74H66.31a3.47,3.47,0,0,1,2.57-3.35l10.33-2.77V273.24h4v57.38l10.32,2.77A3.46,3.46,0,0,1,96.11,336.74Z" style="fill:#263238"></path><polygon points="112.12 291.65 50.3 291.65 55.3 239.99 107.11 239.99 112.12 291.65" style="fill:#ACE594"></polygon><g style="opacity:0.4;isolation:isolate"><polygon points="112.12 291.65 50.3 291.65 55.3 239.99 107.11 239.99 112.12 291.65" style="fill:#fff"></polygon></g><path d="M96.11,336.74H66.31a3.47,3.47,0,0,1,2.57-3.35l10.33-2.77V309.07l4-1.82v23.37l10.32,2.77A3.46,3.46,0,0,1,96.11,336.74Z" style="fill:#fff;opacity:0.2"></path><polygon points="113.27 417.94 109.14 417.94 107.14 405.86 113.27 405.86 113.27 417.94" style="fill:#263238"></polygon><polygon points="49.14 417.94 53.27 417.94 55.27 405.86 49.14 405.86 49.14 417.94" style="fill:#263238"></polygon><rect x="46.43" y="338.49" width="69.55" height="70.45" style="fill:#ACE594"></rect><path d="M47.77,336.74h66.88a3,3,0,0,1,3,3h0a3,3,0,0,1-3,3H47.77a3,3,0,0,1-3-3h0A3,3,0,0,1,47.77,336.74Z" style="fill:#ACE594"></path><path d="M47.77,336.74h66.88a3,3,0,0,1,3,3h0a3,3,0,0,1-3,3H47.77a3,3,0,0,1-3-3h0A3,3,0,0,1,47.77,336.74Z" style="fill:#fff;opacity:0.4;isolation:isolate"></path><rect x="50.71" y="347.26" width="60.99" height="15.93" style="fill:#fff;opacity:0.4;isolation:isolate"></rect><circle cx="81.21" cy="355.11" r="2.08" style="opacity:0.2;isolation:isolate"></circle><rect x="50.71" y="367.26" width="60.99" height="15.93" style="fill:#fff;opacity:0.4;isolation:isolate"></rect><circle cx="81.21" cy="375.11" r="2.08" style="opacity:0.2;isolation:isolate"></circle><rect x="50.71" y="387.26" width="60.99" height="15.93" style="fill:#fff;opacity:0.4;isolation:isolate"></rect><circle cx="81.21" cy="395.11" r="2.08" style="opacity:0.2;isolation:isolate"></circle></g><g id="freepik--Sofa--inject-77"><path d="M147.91,270.91V384.62H426.77V270.91a11,11,0,0,0-11-11H158.89A11,11,0,0,0,147.91,270.91Z" style="fill:#ACE594"></path><path d="M147.91,270.91V384.62H426.77V270.91a11,11,0,0,0-11-11H158.89A11,11,0,0,0,147.91,270.91Z" style="fill:#fff;opacity:0.4;isolation:isolate"></path><rect x="154.77" y="376.96" width="265.12" height="37.26" transform="translate(574.67 791.17) rotate(180)" style="fill:#ACE594"></rect><rect x="154.77" y="376.96" width="265.12" height="37.26" transform="translate(574.67 791.17) rotate(180)" style="fill:#fff;opacity:0.4;isolation:isolate"></rect><path d="M408.47,324.3v87.87a5.77,5.77,0,0,0,5.78,5.77h31.18a5.77,5.77,0,0,0,5.78-5.77V324.3a5.78,5.78,0,0,0-5.78-5.78H414.25A5.78,5.78,0,0,0,408.47,324.3Z" style="fill:#ACE594"></path><path d="M123.47,324.3v87.87a5.77,5.77,0,0,0,5.78,5.77h31.18a5.77,5.77,0,0,0,5.78-5.77V324.3a5.78,5.78,0,0,0-5.78-5.78H129.25A5.78,5.78,0,0,0,123.47,324.3Z" style="fill:#ACE594"></path><path d="M408.47,324.3v87.87a5.77,5.77,0,0,0,5.78,5.77h31.18a5.77,5.77,0,0,0,5.78-5.77V324.3a5.78,5.78,0,0,0-5.78-5.78H414.25A5.78,5.78,0,0,0,408.47,324.3Z" style="fill:#fff;opacity:0.5;isolation:isolate"></path><path d="M123.47,324.3v87.87a5.77,5.77,0,0,0,5.78,5.77h31.18a5.77,5.77,0,0,0,5.78-5.77V324.3a5.78,5.78,0,0,0-5.78-5.78H129.25A5.78,5.78,0,0,0,123.47,324.3Z" style="fill:#fff;opacity:0.5;isolation:isolate"></path><path d="M157.32,356v22.64a6,6,0,0,0,6,6h248a6,6,0,0,0,6-6V356a6,6,0,0,0-6-6h-248a5.83,5.83,0,0,0-2.4.51A6,6,0,0,0,157.32,356Z" style="fill:#ACE594"></path><path d="M157.32,356v22.64a6,6,0,0,0,6,6h248a6,6,0,0,0,6-6V356a6,6,0,0,0-6-6h-248a5.83,5.83,0,0,0-2.4.51A6,6,0,0,0,157.32,356Z" style="fill:#fff;opacity:0.6000000000000001;isolation:isolate"></path></g><g id="freepik--Space--inject-77"><path d="M261.13,78.63c-33.14-4.55-61-2.49-83.6,4.25-28.89,8.61-49,24.89-60,44.73a79.52,79.52,0,0,0-10,38.38c-.32,47.18,43.56,58,85.76,36.95,19.33-9.66,38.43-13.92,56-13.38,20.76.63,39.3,8,53.38,21.05,16.54,15.37,33.84,23.46,48.23,17.14,8.2-3.62,15.44-11.9,21.09-26.18C387.48,162.21,362,92.47,261.13,78.63Z" style="fill:#263238"></path><path d="M282.65,174.12c12.46-16.71-6.7-44.11-53.22-60.21a153.64,153.64,0,0,1-51.9-31c-28.89,8.61-49,24.89-60,44.73,5.68,3.32,13.68,6.79,24.93,10.16,44.92,13.43,70.26,2.51,87.09,13.78s4.79,15.84,18.64,36.55c.33.48.68,1,1,1.46,20.76.63,39.3,8,53.38,21.05,16.54,15.37,33.84,23.46,48.23,17.14C327.84,216.41,272.75,187.4,282.65,174.12Z" style="fill:#fff;opacity:0.1;isolation:isolate"></path><path d="M343.12,181.92A2.63,2.63,0,1,0,340,184,2.63,2.63,0,0,0,343.12,181.92Z" style="fill:#fff;opacity:0.2;isolation:isolate"></path><path d="M341.83,181.66a1.31,1.31,0,1,0-1.55,1A1.31,1.31,0,0,0,341.83,181.66Z" style="fill:#fff;opacity:0.2;isolation:isolate"></path><path d="M132.06,169.89a2.63,2.63,0,1,0-3.1,2.05A2.63,2.63,0,0,0,132.06,169.89Z" style="fill:#fff;opacity:0.2;isolation:isolate"></path><path d="M130.77,169.63a1.31,1.31,0,1,0-2.57-.53,1.32,1.32,0,0,0,1,1.55A1.3,1.3,0,0,0,130.77,169.63Z" style="fill:#fff;opacity:0.2;isolation:isolate"></path><circle cx="276.5" cy="120.41" r="2.63" transform="translate(49.63 319.1) rotate(-64.74)" style="fill:#fff;opacity:0.2;isolation:isolate"></circle><path d="M277.79,120.67a1.33,1.33,0,0,0-1-1.55,1.31,1.31,0,0,0-1.54,1,1.3,1.3,0,0,0,1,1.54A1.31,1.31,0,0,0,277.79,120.67Z" style="fill:#fff;opacity:0.2;isolation:isolate"></path><path d="M195.31,103.87a2.62,2.62,0,1,0-3.09,2A2.62,2.62,0,0,0,195.31,103.87Z" style="fill:#fff;opacity:0.2;isolation:isolate"></path><path d="M194,103.6a1.32,1.32,0,0,0-2.58-.52,1.32,1.32,0,1,0,2.58.52Z" style="fill:#fff;opacity:0.2;isolation:isolate"></path><path d="M264.9,184a2.63,2.63,0,1,0-3.1,2.05A2.63,2.63,0,0,0,264.9,184Z" style="fill:#fff;opacity:0.2;isolation:isolate"></path><path d="M263.61,183.68a1.31,1.31,0,0,0-2.57-.52,1.31,1.31,0,1,0,2.57.52Z" style="fill:#fff;opacity:0.2;isolation:isolate"></path><path d="M327.64,137.14a1.6,1.6,0,0,0-1.24-1.88,1.59,1.59,0,0,0-.64,3.12A1.6,1.6,0,0,0,327.64,137.14Z" style="fill:#fff;opacity:0.2;isolation:isolate"></path><path d="M326.86,137a.8.8,0,1,0-.94.62A.8.8,0,0,0,326.86,137Z" style="fill:#fff;opacity:0.2;isolation:isolate"></path><path d="M262.44,89.25a1.59,1.59,0,1,0-1.87,1.24A1.59,1.59,0,0,0,262.44,89.25Z" style="fill:#fff;opacity:0.2;isolation:isolate"></path><path d="M261.66,89.09a.8.8,0,1,0-.94.62A.79.79,0,0,0,261.66,89.09Z" style="fill:#fff;opacity:0.2;isolation:isolate"></path><path d="M146.84,133a1.59,1.59,0,1,0-1.88,1.24A1.59,1.59,0,0,0,146.84,133Z" style="fill:#fff;opacity:0.2;isolation:isolate"></path><path d="M146.06,132.85a.8.8,0,1,0-.94.62A.8.8,0,0,0,146.06,132.85Z" style="fill:#fff;opacity:0.2;isolation:isolate"></path><path d="M312.42,188.43a1.59,1.59,0,1,0-3.12-.63,1.59,1.59,0,0,0,3.12.63Z" style="fill:#fff;opacity:0.2;isolation:isolate"></path><path d="M311.64,188.27a.8.8,0,1,0-.94.62A.8.8,0,0,0,311.64,188.27Z" style="fill:#fff;opacity:0.2;isolation:isolate"></path><path d="M161.25,199.91a1.59,1.59,0,0,0-3.12-.63,1.59,1.59,0,1,0,3.12.63Z" style="fill:#fff;opacity:0.2;isolation:isolate"></path><path d="M160.47,199.76a.8.8,0,1,0-.94.62A.8.8,0,0,0,160.47,199.76Z" style="fill:#fff;opacity:0.2;isolation:isolate"></path><path d="M177.42,215.14c-2.42-2.28-9.62-3.38-12.72,2.13s4.76,9.94,9.36,6.85S179.07,216.7,177.42,215.14Z" style="fill:#263238"></path><path d="M179.67,225.75c-1.8-2-8-.95-4.25,3.43S181.92,228.29,179.67,225.75Z" style="fill:#263238"></path><path d="M185.39,228.14c-.81-.91-3.61-.43-1.91,1.54S186.41,229.28,185.39,228.14Z" style="fill:#263238"></path><path d="M177.42,215.14c-2.42-2.28-9.62-3.38-12.72,2.13s4.76,9.94,9.36,6.85S179.07,216.7,177.42,215.14Z" style="fill:#fff;opacity:0.1;isolation:isolate"></path><path d="M179.67,225.75c-1.8-2-8-.95-4.25,3.43S181.92,228.29,179.67,225.75Z" style="fill:#fff;opacity:0.2;isolation:isolate"></path><path d="M185.39,228.14c-.81-.91-3.61-.43-1.91,1.54S186.41,229.28,185.39,228.14Z" style="fill:#fff;opacity:0.30000000000000004;isolation:isolate"></path><path d="M324.68,168.79a15.41,15.41,0,0,1-3.51-6.36c-2.53-9.46,4.52-19.57,15.75-22.57s22.39,2.23,24.92,11.68a15.3,15.3,0,0,1,.14,7.27Z" style="fill:#ACE594"></path><path d="M324.68,168.79a15.41,15.41,0,0,1-3.51-6.36c-2.53-9.46,4.52-19.57,15.75-22.57s22.39,2.23,24.92,11.68a15.3,15.3,0,0,1,.14,7.27Z" style="fill:#fff;opacity:0.4;isolation:isolate"></path><path d="M296.54,173.46a2.5,2.5,0,0,0,.84,1.27c4.45,4,24.66,2.53,47.89-3.68S386.74,156,388.6,150.32a2.5,2.5,0,0,0,.09-1.52c-1.47-5.48-23.28-4.41-48.73,2.4S295.08,168,296.54,173.46Z" style="fill:#ACE594"></path><path d="M297.38,174.73c4.45,4,24.66,2.53,47.89-3.68S386.74,156,388.6,150.32c-4.44-4-24.65-2.55-47.89,3.67S299.25,169.06,297.38,174.73Z" style="opacity:0.2;isolation:isolate"></path><path d="M328.24,170.07a1,1,0,0,0,.28.44c1.52,1.35,8.38.86,16.27-1.25s14.09-5.11,14.72-7a.89.89,0,0,0,0-.51c-.17-.61-1.09-1-2.56-1.12-3-.28-8.2.4-14,1.95s-10.66,3.56-13.09,5.29C328.69,168.67,328.08,169.46,328.24,170.07Z" style="fill:#ACE594"></path><path d="M329.9,167.82c3,.3,8.2-.38,14-1.93s10.66-3.57,13.09-5.31c-3-.28-8.2.4-14,1.95S332.33,166.09,329.9,167.82Z" style="fill:#fff;opacity:0.4;isolation:isolate"></path><path d="M337.5,159c.25.91,2,1.25,3.83.75s3.18-1.65,2.93-2.56-1.95-1.25-3.82-.75S337.26,158.09,337.5,159Z" style="fill:#ACE594"></path><path d="M319.78,165.52c.25.92,2,1.25,3.83.76s3.18-1.65,2.93-2.56-2-1.25-3.82-.75S319.54,164.61,319.78,165.52Z" style="fill:#ACE594"></path><path d="M308.65,173.52c.24.91,2,1.25,3.82.75s3.18-1.65,2.94-2.56-2-1.25-3.82-.75S308.41,172.6,308.65,173.52Z" style="fill:#ACE594"></path><path d="M362.3,153.41c.25.92-1.07,2.06-2.93,2.56s-3.58.17-3.82-.75,1.07-2.06,2.93-2.56S362.06,152.5,362.3,153.41Z" style="fill:#ACE594"></path><path d="M375.94,154.78c.25.91-1.07,2.06-2.93,2.55s-3.58.17-3.83-.75,1.07-2.06,2.94-2.56S375.7,153.86,375.94,154.78Z" style="fill:#ACE594"></path><path d="M331.16,145a.71.71,0,0,0,.18-.08,19.91,19.91,0,0,1,4.19-2.31.54.54,0,0,0-.4-1,20.43,20.43,0,0,0-4.42,2.43.54.54,0,0,0,.45,1Z" style="fill:#fff"></path><path d="M355.16,145.39a.55.55,0,0,0,.2-.94,19.76,19.76,0,0,0-16.81-3.94.55.55,0,0,0-.42.64.54.54,0,0,0,.64.42,18.7,18.7,0,0,1,15.9,3.71A.55.55,0,0,0,355.16,145.39Z" style="fill:#fff"></path><path d="M131.4,113.36s-2.59-11.43-3.73-12-7.43,10.51-7.43,10.51-10.85-.65-11.83.12,7.14,9,7.14,9-5.62,10.57-5,11.46S124.29,128,124.29,128s8.86,8.43,9.91,8.25S132.71,123,132.71,123s10.34-5.15,10.19-6.14S131.4,113.36,131.4,113.36Z" style="fill:#ACE594"></path><polygon points="139.82 116.61 125.54 117.62 127.34 102.78 130.8 113.57 139.82 116.61" style="fill:#fff;opacity:0.2;isolation:isolate"></polygon><path d="M110,112.71l15.56,4.91-5.29-5.11S110.82,111.71,110,112.71Z" style="fill:#fff;opacity:0.2;isolation:isolate"></path><polygon points="125.54 117.62 133.91 135.03 131.5 122.73 125.54 117.62" style="fill:#fff;opacity:0.2;isolation:isolate"></polygon><polygon points="124.83 118.36 112.08 131.57 123.68 126.79 124.83 118.36" style="opacity:0.2;isolation:isolate"></polygon><path d="M116.7,120.4l7.56-2.45L110,112.71S113,117.83,116.7,120.4Z" style="opacity:0.2;isolation:isolate"></path><path d="M337.74,204.36s-.32-5.44-.79-5.8-4.21,4.25-4.21,4.25-4.93-1.12-5.43-.85,2.58,4.69,2.58,4.69-3.38,4.41-3.18,4.87,6.66-1,6.66-1,3.42,4.54,3.91,4.53.33-6.17.33-6.17,5.13-1.57,5.13-2S337.74,204.36,337.74,204.36Z" style="fill:#ACE594"></path><polygon points="341.35 206.49 334.73 205.87 336.68 199.2 337.45 204.41 341.35 206.49" style="fill:#fff;opacity:0.2;isolation:isolate"></polygon><path d="M328,202.43l6.76,3.44-2-2.75S328.43,202,328,202.43Z" style="fill:#fff;opacity:0.2;isolation:isolate"></path><polygon points="334.73 205.87 337.24 214.49 337.07 208.66 334.73 205.87" style="fill:#fff;opacity:0.2;isolation:isolate"></polygon><polygon points="334.35 206.15 327.49 211.24 333.17 209.93 334.35 206.15" style="opacity:0.2;isolation:isolate"></polygon><path d="M330.46,206.47l3.65-.55L328,202.43A13.53,13.53,0,0,0,330.46,206.47Z" style="opacity:0.2;isolation:isolate"></path><circle cx="159.26" cy="180.68" r="10.37" transform="translate(-81.57 183.35) rotate(-49.24)" style="fill:#ACE594"></circle><path d="M152.7,178a7.2,7.2,0,1,0,6.65-7.72A7.21,7.21,0,0,0,152.7,178Z" style="fill:#fff;opacity:0.2;isolation:isolate"></path></g><g id="freepik--character-2--inject-77"><g id="freepik--group--inject-77"><path d="M252,129.11l-3.94,5.24s6.3,21.41.9,31.85-43.65,3-43.65,3l.22-5.84s22.21-.92,24.33-5.78S227,137,227,137s-18.45,7.08-31.13,6.54-32.38-21.78-32.38-21.78l4-4.49s27.45,10,30.59,8.83,29.26-18.3,35.75-18.24S252,129.11,252,129.11Z" style="fill:#ACE594"></path><path d="M163.47,121.72S183.18,143,195.85,143.5,227,137,227,137a99.28,99.28,0,0,1,2.9,11.88c.57,3.5.78,6.88,0,8.71-2.12,4.85-24.34,5.78-24.34,5.78l-.21,5.84s38.25,7.47,43.65-3-.9-31.85-.9-31.85l3.94-5.24s-11.52-20.89-18-21.28h-.16c-6.49-.06-32.61,17.05-35.74,18.24-2.39.91-18.72-4.63-26.49-7.37-2.49-.88-4.11-1.47-4.11-1.47Z" style="fill:#fff;opacity:0.7000000000000001;isolation:isolate"></path><path d="M227,137a98.12,98.12,0,0,1,2.89,11.88,83.58,83.58,0,0,0,7.22-12.21Z" style="opacity:0.2;isolation:isolate"></path><path d="M231.26,108.3a8.85,8.85,0,0,1,2.54-.48H234l2.79,4.16a39.51,39.51,0,0,0-4.31,1.12A39.25,39.25,0,0,0,231.26,108.3Z" style="opacity:0.2;isolation:isolate"></path><path d="M225.72,110.58a49.19,49.19,0,0,1,4.54-1.94,36.92,36.92,0,0,1,1.17,4.8c-1.41.47-3,1.08-4.72,1.84C226.36,113.72,226.05,112.15,225.72,110.58Z" style="opacity:0.2;isolation:isolate"></path><path d="M219.58,119.32c-.31-1.68-.66-3.36-1-5,2.14-1.17,4.24-2.28,6.19-3.24.33,1.56.64,3.13,1,4.69A41.32,41.32,0,0,0,219.58,119.32Z" style="opacity:0.2;isolation:isolate"></path><path d="M207.86,120.45c1.42-.84,2.91-1.72,4.45-2.61.06,2.2.05,4.41.14,6.61-1.48.89-2.95,1.66-4.38,2.34A53.87,53.87,0,0,1,207.86,120.45Z" style="opacity:0.2;isolation:isolate"></path><path d="M203.28,128.25a19.17,19.17,0,0,0-.22-5l3.74-2.21c0,2,.15,4.1.28,6.16-1.34.59-2.63,1.09-3.84,1.5C203.25,128.58,203.27,128.41,203.28,128.25Z" style="opacity:0.2;isolation:isolate"></path><path d="M198.32,126c.71-.32,2-1.08,3.78-2.1a18.83,18.83,0,0,1,.12,4.56l-.06.69a32,32,0,0,1-4.43,1.09C197.91,128.78,198.11,127.36,198.32,126Z" style="opacity:0.2;isolation:isolate"></path><path d="M187.34,123.9c1.79.53,3.49,1,5,1.39a25,25,0,0,1-1,3.89c-1.53-.54-3.29-1.22-5.11-2C186.58,126.11,186.94,125,187.34,123.9Z" style="opacity:0.2;isolation:isolate"></path><path d="M174.88,122.3c-2.49-1.12-4.16-1.91-4.16-1.91l.85-1.7,4.31,1.5C175.56,120.9,175.23,121.6,174.88,122.3Z" style="opacity:0.2;isolation:isolate"></path><path d="M176.88,120.53l3.67,1.23a19.84,19.84,0,0,0-1.52,2.4l-3.19-1.42C176.2,122,176.55,121.27,176.88,120.53Z" style="opacity:0.2;isolation:isolate"></path><path d="M181.61,122.1c1.58.51,3.17,1,4.72,1.49-.38,1.07-.72,2.16-1.09,3.23-1.75-.72-3.54-1.49-5.24-2.23A17.64,17.64,0,0,1,181.61,122.1Z" style="opacity:0.2;isolation:isolate"></path><path d="M193.35,125.53a20.75,20.75,0,0,0,3.87.63c-.2,1.39-.39,2.78-.57,4.18-.22,0-.42,0-.61,0a13,13,0,0,1-3.73-.86A27.53,27.53,0,0,0,193.35,125.53Z" style="opacity:0.2;isolation:isolate"></path><path d="M213.34,117.24c1.41-.81,2.84-1.63,4.26-2.42q.57,2.59,1.05,5.21c-.31.24-.62.46-.93.71a44,44,0,0,1-4.24,3.07C213.4,121.62,213.42,119.43,213.34,117.24Z" style="opacity:0.2;isolation:isolate"></path><path d="M175,118.86l-6.76,9.83-6.8-6.41s-6.08.79-8.19,2.71-1.28-2.45.95-5,5.33-7.86,7.21-8.56,4.36,3.51,4.36,3.51Z" style="fill:#ACE594"></path><path d="M211.7,160.25l.87,11.9-9.32-.76s-4.25,4.42-4.7,7.24-2.53-1.12-2.37-4.5-.75-9.46.28-11.18,5.6,0,5.6,0Z" style="fill:#ACE594"></path><path d="M284.33,99.81s8.5,9.9,17.93,9.84S319,100.5,319,100.5l3.72,3.28s-4.32,17.32-19,18.93S272.41,112,272.41,112Z" style="fill:#ACE594"></path><path d="M272.42,112a67.42,67.42,0,0,0,10.76,6.28c5.88,2.77,13.38,5.23,20.46,4.45,14.71-1.61,19-18.93,19-18.93L319,100.51a29.08,29.08,0,0,1-10.71,7.92,16.54,16.54,0,0,1-6,1.22c-9.43.06-17.94-9.83-17.94-9.83l-1.79,1.82-5.19,5.3Z" style="fill:#fff;opacity:0.7000000000000001;isolation:isolate"></path><path d="M319.16,101s2.16-3,1.89-3.44-1-2.25-.68-2.94.92-4.76,1.55-4.82,5.23.12,5.47.81-1.44,6.81-2,7.33a7.65,7.65,0,0,0-1,1.2l-1.75,4.6Z" style="fill:#ACE594"></path><path d="M319.16,101s2.16-3,1.89-3.44-1-2.25-.68-2.94.92-4.76,1.55-4.82,5.23.12,5.47.81-1.44,6.81-2,7.33a7.65,7.65,0,0,0-1,1.2l-1.75,4.6Z" style="opacity:0.2;isolation:isolate"></path><polygon points="323.55 103.73 318.88 99.85 316.74 100.94 322.93 105.85 323.55 103.73" style="fill:#ACE594"></polygon><path d="M285.85,105.63a18.85,18.85,0,0,1-1.66-1.73l.09-.19a9.45,9.45,0,0,1,1.58-2.29c.38.37.82.78,1.31,1.22A22.08,22.08,0,0,1,285.85,105.63Z" style="opacity:0.2;isolation:isolate"></path><path d="M288.69,107.82a19.1,19.1,0,0,1-2-1.48,23.39,23.39,0,0,0,1.36-3c.53.44,1.11.91,1.73,1.37C289.39,105.77,289,106.79,288.69,107.82Z" style="opacity:0.2;isolation:isolate"></path><path d="M291.46,109.27a17.77,17.77,0,0,1-1.86-.9c.34-1,.69-2,1-3,.59.41,1.22.81,1.87,1.2C292.2,107.49,291.81,108.37,291.46,109.27Z" style="opacity:0.2;isolation:isolate"></path><path d="M294.8,110.29a18.06,18.06,0,0,1-2.36-.65l.18-.47c.28-.68.56-1.36.8-2.06q.87.48,1.8.9Q295,109.15,294.8,110.29Z" style="opacity:0.2;isolation:isolate"></path><path d="M302.26,109.65c.41,0,.82,0,1.23-.07.08.28.17.56.26.84a19.1,19.1,0,0,1-3.83.36c-.1-.46-.19-.92-.3-1.38A15.53,15.53,0,0,0,302.26,109.65Z" style="opacity:0.2;isolation:isolate"></path><path d="M304.77,110.17l-.22-.73a17.41,17.41,0,0,0,3.7-1A9.28,9.28,0,0,1,304.77,110.17Z" style="opacity:0.2;isolation:isolate"></path><path d="M298.48,109.15c.13.53.25,1.07.36,1.61-.84,0-1.74-.11-2.71-.24l-.3,0c.12-.68.25-1.37.38-2A20,20,0,0,0,298.48,109.15Z" style="opacity:0.2;isolation:isolate"></path><path d="M284.32,99.82s.29.33.81.86a10.24,10.24,0,0,0-1.66,2.32c-.38-.5-.69-1-.94-1.36Z" style="opacity:0.2;isolation:isolate"></path><path d="M272.41,112a67.83,67.83,0,0,0,10.77,6.28,123.84,123.84,0,0,1-5.83-11.32Z" style="opacity:0.2;isolation:isolate"></path><path d="M258.22,124.07l-6.22,5s-15.46-9.79-18.38-20.34l4.12-4Z" style="fill:#ACE594"></path><path d="M283,103.16s-15.17,20-24.33,22.1c-7,1.59-17.35-11.16-21.86-17.3a4.57,4.57,0,0,1,.45-6c6-6,20.7-19.73,31.42-21Z" style="fill:#ACE594"></path><path d="M236.85,108c4.51,6.14,14.86,18.89,21.85,17.3,9.17-2.1,24.34-22.1,24.34-22.1l-13-20L268.72,81h0a16.81,16.81,0,0,0-3.26.72,36.52,36.52,0,0,0-7.62,3.53c-2,1.18-3.95,2.52-5.87,3.94-1.55,1.14-3.07,2.34-4.52,3.53-4.2,3.47-7.83,7-10.15,9.27A4.6,4.6,0,0,0,236.85,108Z" style="fill:#fff;opacity:0.7000000000000001;isolation:isolate"></path><circle cx="287.39" cy="83.71" r="16.39" transform="translate(42.06 255.22) rotate(-51.2)" style="fill:#ACE594"></circle><circle cx="287.39" cy="83.71" r="16.39" transform="translate(42.06 255.22) rotate(-51.2)" style="fill:#fff;opacity:0.4;isolation:isolate"></circle><path d="M273.66,89.48c-.45,2.94,3.15,7,3.15,7s2.62,2.29,3.11,1.12c-.83-1.83-.59-3.14.18-4.13a5.83,5.83,0,0,1,1.77-1.42c.37-.2.76-.39,1.15-.56l.42-8.27C281.21,85.77,276.81,90,273.66,89.48Z" style="fill:#ebb376"></path><path d="M281.55,85.89A5.63,5.63,0,0,0,279.36,93a5.75,5.75,0,0,1,1.88-1.26Z" style="opacity:0.2;isolation:isolate"></path><path d="M295.42,80.69s-.58,6.26-4.36,7.79-1-9.71-1-9.71Z" style="fill:#263238"></path><path d="M280.56,91a5.65,5.65,0,0,0,5.76,3.69,6.28,6.28,0,0,0,4.19-2,5.27,5.27,0,0,0,.43-.51c2.5-3.29,4.6-9.62,1.31-13a6.11,6.11,0,0,0-8.64-.17,6,6,0,0,0-1.54,2.39C280.51,85.57,279.4,88,280.56,91Z" style="fill:#ebb376"></path><path d="M290.28,86.54a12.86,12.86,0,0,0,.34,3.55,2.1,2.1,0,0,1-1.73-.4Z" style="fill:#a24e3f"></path><path d="M287.14,83.52a.24.24,0,0,0,.23,0,1.74,1.74,0,0,1,1.54-.1.21.21,0,0,0,.28-.09.2.2,0,0,0-.09-.29h0a2.11,2.11,0,0,0-1.94.11.22.22,0,0,0-.09.29h0Z" style="fill:#263238"></path><path d="M293.73,86.31a.23.23,0,0,0,.12.06.21.21,0,0,0,.2-.22h0a2.12,2.12,0,0,0-.92-1.72.22.22,0,0,0-.3.07h0a.22.22,0,0,0,.08.29h0a1.74,1.74,0,0,1,.71,1.38A.26.26,0,0,0,293.73,86.31Z" style="fill:#263238"></path><path d="M287.31,77.59l-.48,1.93A1.46,1.46,0,0,0,285.48,81a5.38,5.38,0,0,1-3.35,4.34s.22-.68-.41-.74-1.8,3.49-1.34,5.58a11.65,11.65,0,0,1-.63-6.17c.42-3.72,1.4-6.59,2.59-7.63Z" style="fill:#263238"></path><path d="M285.79,79.1s2,3.46,4.62,3.48a4,4,0,0,1-1.92-1.85s3.31,3.2,4.88,2.8,2,1.24,3.41.43.37-3.81.37-3.81.93,0,.33-1.62-1.31-1.73-2.15-2.23.4-2.17-.91-3.49-6.24-3.13-7.23.2a3.18,3.18,0,0,0-4.41.2c-1.16,1.05-.42,1.9-.42,1.9s-1.46-.89-3.4,1.52-.72,5.84-.72,5.84-.9,0-.23,2.06a4.68,4.68,0,0,0,2.08,2.78S281.24,80.32,285.79,79.1Z" style="fill:#263238"></path><path d="M278.81,84a4.21,4.21,0,0,0,1.37,3c1.1,1,2.32.18,2.57-1.22.22-1.23-.08-3.28-1.46-3.74A1.89,1.89,0,0,0,278.81,84Z" style="fill:#ebb376"></path><path d="M294.81,76.28s2.28.36,2.3-1.13" style="fill:none;stroke:#263238;stroke-linecap:round;stroke-linejoin:round;stroke-width:0.5px"></path><path d="M296.25,79.64a3.22,3.22,0,0,1,1.59,3.45" style="fill:none;stroke:#263238;stroke-linecap:round;stroke-linejoin:round;stroke-width:0.5px"></path><path d="M282.72,75.52a3.09,3.09,0,0,1-1-2.43" style="fill:none;stroke:#263238;stroke-linecap:round;stroke-linejoin:round;stroke-width:0.5px"></path><path d="M282.36,75.11a4.68,4.68,0,0,0-5.1,4" style="fill:none;stroke:#263238;stroke-linecap:round;stroke-linejoin:round;stroke-width:0.5px"></path><path d="M287.55,85a.57.57,0,0,0,.16.77c.23.08.51-.12.65-.46s.06-.68-.16-.77S287.69,84.67,287.55,85Z" style="fill:#263238"></path><path d="M291.38,86.53a.56.56,0,0,0,.16.77c.22.08.51-.12.64-.46s.06-.68-.16-.77S291.51,86.21,291.38,86.53Z" style="fill:#263238"></path><path d="M288.09,90.79A11.58,11.58,0,0,0,287,92l-.25-.15c-1.13-.67-1.43-1.36-1.42-1.92a1.75,1.75,0,0,1,.22-.77,1.5,1.5,0,0,1,.27-.37,6,6,0,0,0,1.93,1.78Z" style="fill:#263238"></path><path d="M287.71,90.55l-.34.35c-1.06-.64-1.72-1.24-1.86-1.76a1.5,1.5,0,0,1,.27-.37A6,6,0,0,0,287.71,90.55Z" style="fill:#fff"></path><path d="M286.71,91.83c-1.13-.67-1.43-1.36-1.42-1.92a4.48,4.48,0,0,1,1.1,1A1.65,1.65,0,0,1,286.71,91.83Z" style="fill:#de5753"></path><path d="M294.63,71.16s6.62,4,6.53,11.44-4.4,12.15-8.48,13.4" style="fill:none;stroke:#fff;stroke-linecap:round;stroke-linejoin:round"></path><path d="M292.29,70.16a13.76,13.76,0,0,0-3.45-1.11" style="fill:none;stroke:#fff;stroke-linecap:round;stroke-linejoin:round"></path><path d="M271.29,80.65s.91,11.83,13,19.16L283,103.16s-13.88-6-14.32-22.16Z" style="fill:#ACE594"></path><path d="M275.49,108s-9.43-7.92-9.74-8.62-9.67,7.07-9.51,7.55,8.48,9.61,10.36,10S276.1,108.5,275.49,108Z" style="opacity:0.2;isolation:isolate"></path><path d="M275.56,108.81s-8.67-7.29-9-7.94-8.9,6.52-8.75,7,7.8,8.84,9.53,9.17S276.13,109.31,275.56,108.81Z" style="fill:#fff;isolation:isolate"></path><path d="M264.81,104.81a1.43,1.43,0,1,0,1.67-1.14A1.43,1.43,0,0,0,264.81,104.81Z" style="fill:#263238"></path><path d="M265.43,104.93a1.11,1.11,0,1,0,1.3-.89A1.11,1.11,0,0,0,265.43,104.93Z" style="fill:#fff;opacity:0.2;isolation:isolate"></path><path d="M261.2,108.43a1.43,1.43,0,1,0,1.68-1.14A1.43,1.43,0,0,0,261.2,108.43Z" style="fill:#ACE594"></path><path d="M261.82,108.54a1.13,1.13,0,0,0,.89,1.31,1.11,1.11,0,1,0-.89-1.31Z" style="opacity:0.2;isolation:isolate"></path><path d="M271.16,109.71a1.43,1.43,0,1,0,2.81.54,1.43,1.43,0,0,0-2.81-.54Z" style="fill:#263238"></path><path d="M271.78,109.83a1.11,1.11,0,1,0,1.3-.88A1.12,1.12,0,0,0,271.78,109.83Z" style="fill:#fff;opacity:0.2;isolation:isolate"></path><path d="M267.07,113.35a1.45,1.45,0,0,0,1.14,1.68,1.44,1.44,0,0,0,.54-2.82A1.45,1.45,0,0,0,267.07,113.35Z" style="fill:#ACE594"></path><path d="M267.7,113.47a1.12,1.12,0,0,0,.88,1.31,1.13,1.13,0,0,0,1.31-.89,1.11,1.11,0,0,0-2.19-.42Z" style="opacity:0.2;isolation:isolate"></path><path d="M247.44,92.72c11.79,4.14,14.15-4.58,14.15-4.58l-3.76-2.89A86.61,86.61,0,0,0,247.44,92.72Z" style="opacity:0.2;isolation:isolate"></path><path d="M217.21,78s-3.32,1.58-3.3,2.12-.18,2.46-.81,2.9-3.07,3.75-3.66,3.5-4.54-2.59-4.42-3.31,4.51-5.3,5.24-5.5a7.67,7.67,0,0,0,1.44-.59l3.73-3.21Z" style="fill:#ACE594"></path><path d="M217.21,78s-3.32,1.58-3.3,2.12-.18,2.46-.81,2.9-3.07,3.75-3.66,3.5-4.54-2.59-4.42-3.31,4.51-5.3,5.24-5.5a7.67,7.67,0,0,0,1.44-.59l3.73-3.21Z" style="opacity:0.2;isolation:isolate"></path><path d="M268.72,81S250,64.21,233.78,66.74s-19.05,5.89-19.05,5.89l1.62,6.77s21.84-2.5,28,1.87,8.08,8.87,8.08,8.87S262.66,94.23,268.72,81Z" style="fill:#ACE594"></path><path d="M214.73,72.63l1.62,6.77s21.84-2.5,28,1.87A25.73,25.73,0,0,1,252,89.19a6.75,6.75,0,0,1,.5,1s8.89,3.57,15-6.72c.43-.73.85-1.54,1.26-2.41h0c-.48-.42-19-16.76-34.93-14.26-1.06.17-2.06.33-3,.5C217.25,69.69,214.73,72.63,214.73,72.63Z" style="fill:#fff;opacity:0.7000000000000001;isolation:isolate"></path><polygon points="214.93 71.59 217.33 80.51 215.35 80.14 213.48 73.28 214.93 71.59" style="fill:#ACE594"></polygon><path d="M268.32,80.66l.39.34h0l1.36,2.1-.16,2.52s-.7-.66-1.9-1.71C268.11,82.83,268.19,81.74,268.32,80.66Z" style="opacity:0.2;isolation:isolate"></path><path d="M264.77,77.85c1.06.79,1.94,1.48,2.6,2-.16,1.06-.25,2.13-.33,3.19-.48-.42-1-.86-1.59-1.34l-1.68-1.39C264.07,79.49,264.4,78.66,264.77,77.85Z" style="opacity:0.2;isolation:isolate"></path><path d="M260.71,75c1.17.76,2.24,1.5,3.19,2.19-.36.8-.7,1.61-1,2.43-1-.78-2-1.58-3.12-2.39C260.07,76.5,260.38,75.75,260.71,75Z" style="opacity:0.2;isolation:isolate"></path><path d="M256.78,72.62c1.06.61,2.08,1.22,3,1.82-.32.72-.62,1.44-.9,2.18-1-.69-1.93-1.36-2.92-2A17.75,17.75,0,0,1,256.78,72.62Z" style="opacity:0.2;isolation:isolate"></path><path d="M253.39,70.83q1.28.63,2.49,1.29a16.57,16.57,0,0,0-.77,1.91c-.79-.5-1.59-1-2.39-1.43C252.93,72,253.15,71.41,253.39,70.83Z" style="opacity:0.2;isolation:isolate"></path><path d="M249.58,69.15c1,.38,1.93.8,2.86,1.23-.23.56-.45,1.12-.65,1.69q-1.42-.78-2.82-1.41C249.2,70.17,249.4,69.66,249.58,69.15Z" style="opacity:0.2;isolation:isolate"></path><path d="M244.39,67.45a43.9,43.9,0,0,1,4.22,1.32c-.18.5-.38,1-.6,1.48A20,20,0,0,0,243.79,69Z" style="opacity:0.2;isolation:isolate"></path><path d="M234.52,66.64a22.35,22.35,0,0,1,3.84-.12l-.54,2c-1.56-.08-2.77-.12-3.71-.14C234.25,67.81,234.39,67.23,234.52,66.64Z" style="opacity:0.2;isolation:isolate"></path><path d="M239.42,66.59a31,31,0,0,1,3.94.61c-.21.56-.43,1.11-.64,1.66-1.45-.12-2.71-.2-3.83-.27Z" style="opacity:0.2;isolation:isolate"></path></g></g><g id="freepik--character-shadow--inject-77"><path d="M169.51,340.23a10.58,10.58,0,0,0-6.2,7.17A8.06,8.06,0,0,0,164,353c.88,1.76,6.63,3.92,8.51,3.72a62,62,0,0,0,9.87-1.92,10.93,10.93,0,0,1,6.38.18c10.71,3.59,50.2,13.29,139.52,1a4.31,4.31,0,0,1,3.39,1c5.13,4.4,22.13,17.41,24.36,16.74,1.78-.53,14.57-13.76,22.45-23.37,3-3.7,1.83-8-2.71-9.52-33.48-11.33-83.7-6.75-126.34-7.69a3.88,3.88,0,0,1-.48,0c-23.58-3.07-43.9-3.81-65.57,2A106,106,0,0,0,169.51,340.23Z" style="opacity:0.2;isolation:isolate"></path></g><g id="freepik--Cushions--inject-77"><path d="M313.42,339.14c2.69,3.82,52.82,18.81,59.19,15.78s29.86-49.28,27.26-54.92l-.16-.25c-4.26-5.09-53.18-21.49-55.07-21.54-1.15,0-12.84,20.05-21.62,37.19C317,327.17,312.32,337.58,313.42,339.14Z" style="fill:#fff"></path><path d="M313.42,339.14c2.69,3.82,52.82,18.81,59.19,15.78s29.86-49.28,27.26-54.92l-.16-.25S385,309,377.46,317.84A53.45,53.45,0,0,0,367.27,337l-25,.42s-10.47-15.16-19.27-22C317,327.17,312.32,337.58,313.42,339.14Z" style="opacity:0.1;isolation:isolate"></path><path d="M168.41,352.76c2.83,1.49,39-14.94,42.43-18.66s-.62-9-.62-9-5.25-12-10.46-23.77c-4.2-9.47-8.38-18.75-9.77-21.42-3.11-6-41.12,5.61-48,6.59-.72.1-1.14.84-1.3,2.09C139.41,299.22,157,346.76,168.41,352.76Z" style="fill:#fff"></path><path d="M168.41,352.76c2.83,1.49,39-14.94,42.43-18.66s-.62-9-.62-9-5.25-12-10.46-23.77c-18.55-3.31-40.84-5.84-40.83,1.1,0,11.87,13.44,42.66,13.44,42.66a3.91,3.91,0,0,1-5,2.34s-5.54-20.48-10.76-35A99.17,99.17,0,0,0,142,286.5l-1.3,2.09C139.41,299.22,157,346.76,168.41,352.76Z" style="opacity:0.1;isolation:isolate"></path></g><g id="freepik--character-1--inject-77"><g id="freepik--group--inject-77"><path d="M219.63,272.52s-5.3,3.09-7.33,5.24-4.47,12.7-5.39,15.45,7.13,7.26,8.71,7.26,3.65-13.61,3.7-15.59a7.13,7.13,0,0,0-1.44-3.91l6.1-4.4Z" style="fill:#ebb376"></path><path d="M203.86,248.27s43.88-7.92,45.78,5.44-28,27.91-28,27.91l-7.76-6.2s17.56-12.61,16.9-15.49-27.57,5.52-27.57,5.52Z" style="fill:#ACE594"></path><path d="M215.45,274.28l-1.56,1.14.09.07,7.68,6.13s29.89-14.54,28-27.91c-.75-5.27-8-7.23-16.58-7.67-13.11-.67-29.2,2.23-29.2,2.23l-.64,17.18s17-5.29,24.27-6c1.9-.2,3.15-.08,3.29.51C231.34,262.28,219.74,271.11,215.45,274.28Z" style="opacity:0.2;isolation:isolate"></path><path d="M203.23,265.45s17-5.29,24.27-6A64.54,64.54,0,0,0,233.07,246c-13.11-.67-29.2,2.23-29.2,2.23Z" style="opacity:0.2;isolation:isolate"></path><polygon points="377.45 346.99 375.43 339.14 357.07 343.17 359.1 351.04 377.45 346.99" style="fill:#ebb376"></polygon><path d="M374.24,338.28l2.46,9.54a.71.71,0,0,0,.71.53l7.39-.25a1.2,1.2,0,0,0,1.14-1.25.78.78,0,0,0,0-.26c-.84-3.07-1.61-5.27-2.61-9.15-.61-2.38-2.22-9.65-3.07-12.95s-4.22-2.88-4.17-1.46c.24,6.39-.41,11.42-1.65,13.81A2,2,0,0,0,374.24,338.28Z" style="fill:#263238"></path><path d="M375.19,337.46a.2.2,0,0,1-.12.18.17.17,0,0,1-.21,0c-.25-.23-2.46-2.37-2.23-3.35a.57.57,0,0,1,.43-.46,1.12,1.12,0,0,1,1.1.14,2.41,2.41,0,0,1,.79,1.4A9.6,9.6,0,0,1,375.19,337.46Zm-.4-.47a3.93,3.93,0,0,0-.86-2.76.82.82,0,0,0-.73-.08c-.15.05-.2.13-.19.18a.43.43,0,0,0,0,.25A7.79,7.79,0,0,0,374.79,337Z" style="fill:#ACE594"></path><path d="M375.24,337.5a.22.22,0,0,1-.14.14c-.12,0-2.42.41-3.4-.31a1.06,1.06,0,0,1-.44-.73.63.63,0,0,1,.34-.72c.78-.38,2.92.74,3.56,1.44l0,.09A.16.16,0,0,1,375.24,337.5Zm-3.38-.47a4.55,4.55,0,0,0,2.7.3c-.82-.65-2.38-1.32-2.87-1.09-.05,0-.18.08-.12.32l0,.09A.7.7,0,0,0,371.86,337Z" style="fill:#ACE594"></path><polygon points="359.11 351.03 357.08 343.17 366.55 341.1 368.58 348.96 359.11 351.03" style="opacity:0.2;isolation:isolate"></polygon><polygon points="357.07 368.87 361.99 362.43 347.46 350.5 342.54 356.95 357.07 368.87" style="fill:#ebb376"></polygon><path d="M361.92,361l-6,7.83a.69.69,0,0,0,0,.88l4.77,5.65a1.18,1.18,0,0,0,1.68.13,1.07,1.07,0,0,0,.18-.19c1.9-2.57,3.15-4.53,5.58-7.71,1.49-2,6.21-7.72,8.28-10.42S376.12,352,375,353c-4.88,4.14-9.23,6.73-11.87,7.24A1.91,1.91,0,0,0,361.92,361Z" style="fill:#263238"></path><path d="M363.15,361.21a.22.22,0,0,1-.22,0,.2.2,0,0,1-.09-.19c0-.34.34-3.4,1.25-3.83a.6.6,0,0,1,.63.06,1.18,1.18,0,0,1,.58.95,2.43,2.43,0,0,1-.62,1.49A9.5,9.5,0,0,1,363.15,361.21Zm.13-.61a3.91,3.91,0,0,0,1.63-2.38.79.79,0,0,0-.39-.63c-.13-.08-.22-.08-.25,0a.55.55,0,0,0-.2.17A8,8,0,0,0,363.28,360.6Z" style="fill:#ACE594"></path><path d="M363.15,361.27a.21.21,0,0,1-.19,0c-.09-.08-1.82-1.65-1.86-2.86a1.06,1.06,0,0,1,.3-.8.65.65,0,0,1,.78-.18c.78.39,1.21,2.76,1.07,3.7l-.06.07A.13.13,0,0,1,363.15,361.27Zm-1.72-2.95a4.64,4.64,0,0,0,1.44,2.31c0-1.05-.44-2.69-.92-2.93-.05,0-.18-.09-.33.11l-.05.07A.65.65,0,0,0,361.43,358.32Z" style="fill:#ACE594"></path><polygon points="342.54 356.96 347.47 350.51 354.95 356.66 350.03 363.11 342.54 356.96" style="opacity:0.2;isolation:isolate"></polygon><path d="M173.88,316.79l5,21c1.67,29.51,97.5,18.35,130.29,16.63,1.74-.09,4.17-.2,7-.32,13.64-.6,37.28-1.49,44.67-1.76l2.28-.09L362.81,339c-3,.08-6.7,0-11-.12l-4.55-.18c-14.26-.64-33.42-2.14-53.42-3.95l-1.67-.15c-48.41-4.42-101.14-10.53-101.14-10.53Z" style="fill:#263238"></path><polygon points="363.67 336.15 368.03 353.09 362.97 354.39 358.11 336.9 363.67 336.15" style="fill:#ACE594"></polygon><polygon points="363.67 336.15 368.03 353.09 362.97 354.39 358.11 336.9 363.67 336.15" style="fill:#fff;opacity:0.6000000000000001;isolation:isolate"></polygon><path d="M292.19,334.6c6.77,5,16.67,13.26,24,19.47,13.64-.6,37.28-1.49,44.67-1.76L347.28,338.7c-14.26-.64-33.42-2.14-53.42-3.95Z" style="opacity:0.2;isolation:isolate"></path><path d="M178.89,337.76c20,28.89,67.84-6.6,67.85-6.6.53-.24,1.08-.48,1.66-.71h0c6.68-2.71,16.16-5.08,21.3-6.53.72-.2,1.34-.39,1.87-.55,2.72-.86,4.84-1.22,6.26-.91a30.49,30.49,0,0,1,5.32,1.94c18.57,8.27,63.5,38.13,63.5,38.13l8-10.66s-9.4-8.63-22.35-18.87c-18.88-14.92-45.3-33.25-61.16-33.24-26.72,0-61.5,16.07-61.5,16.07l-19.21-10.43Z" style="fill:#263238"></path><polygon points="357.06 351.34 346.45 365.24 342.29 362.07 353.03 347.44 357.06 351.34" style="fill:#ACE594"></polygon><polygon points="357.06 351.34 346.45 365.24 342.29 362.07 353.03 347.44 357.06 351.34" style="fill:#fff;opacity:0.6000000000000001;isolation:isolate"></polygon><path d="M219.33,328.38l29.07,2.07h0c6.68-2.71,16.16-5.08,21.3-6.53A287.39,287.39,0,0,0,219.33,328.38Z" style="opacity:0.2;isolation:isolate"></path><path d="M180.56,346.8l32.6-33.43a18.07,18.07,0,0,1-10.07-9.26c-2.83-5.85-3.09-13.19-2.26-19.87a61.4,61.4,0,0,1,1.76-8.82c3.32-12.05,1.41-24.78,1.41-24.78-21.63-4.53-45.94,6.65-47.4,16.51C150.38,309.06,180.56,346.8,180.56,346.8Z" style="fill:#ACE594"></path><path d="M214.16,259.91l4.19-7.18a32.16,32.16,0,0,1,1.28-5.43c.73-1.78,10.73-4.17,13.63-2.6a13.81,13.81,0,0,0,3.66,1.66s-4,7-6.13,8a13.28,13.28,0,0,1-5.25.9l-5.91,8.49Z" style="fill:#ebb376"></path><path d="M178.89,261.27c2.74,2.51,7.86,2.73,10.67,2.64,1.2,0,2-.13,2-.13-.35-2.12,5.69-5,5.69-5l-5.46-10.07-.23-.42-.57.51h0a12.66,12.66,0,0,1-2.27,1.54,9.65,9.65,0,0,1-6.32,1.16S172.51,255.4,178.89,261.27Z" style="fill:#ebb376"></path><path d="M189.56,263.91c1.2,0,2-.13,2-.13-.35-2.12,5.69-5,5.69-5l-5.46-10.07-.8.09h0l-1.77.21s-.22.5-.5,1.33C187.75,253.1,186.12,259.57,189.56,263.91Z" style="opacity:0.2;isolation:isolate"></path><path d="M221.1,247.18s-6.65,9.14-13.88,8,7.38-15.9,7.38-15.9Z" style="fill:#263238"></path><path d="M188.73,249.41a10.15,10.15,0,0,0,5.51,11,11.27,11.27,0,0,0,8.28.8,10.24,10.24,0,0,0,1.14-.39c6.87-2.8,15.93-10.64,14-18.9A11,11,0,0,0,199.84,236C193.6,241,189.69,243.71,188.73,249.41Z" style="fill:#ebb376"></path><path d="M207.79,251.49a23.1,23.1,0,0,0-2.72,5.8,3.76,3.76,0,0,1-2.31-2.22Z" style="fill:#a24e3f"></path><path d="M205.73,243.94a.39.39,0,0,0,.34.22,3.06,3.06,0,0,1,2.47,1.25.39.39,0,0,0,.53.12.37.37,0,0,0,.12-.52h0a3.79,3.79,0,0,0-3.1-1.62.38.38,0,0,0-.4.36h0A.39.39,0,0,0,205.73,243.94Z" style="fill:#263238"></path><path d="M213.35,254.31a.33.33,0,0,0,.12.19.37.37,0,0,0,.51-.15h0a3.82,3.82,0,0,0,.14-3.51.39.39,0,0,0-.52-.15h0a.4.4,0,0,0-.15.52h0a3.08,3.08,0,0,1-.16,2.77A.43.43,0,0,0,213.35,254.31Z" style="fill:#263238"></path><path d="M211.42,234.94l-2.51,2.53a2.65,2.65,0,0,0-3.43,1c-1.62,2.74-6.29,4.28-9.16,3.63,0,0,1-.85.06-1.52s-6,3.74-7.19,7.4c0,0,.28-4.32,4.68-10.12,4.07-5.36,8.21-8.9,11-9.41Z" style="fill:#263238"></path><path d="M206.12,248.65s-2.22.27-2.81-1.47" style="fill:none;stroke:#263238;stroke-linecap:round;stroke-linejoin:round;stroke-width:0.5px"></path><path d="M210.28,252.73s-.47,1.85,1.18,2.25" style="fill:none;stroke:#263238;stroke-linecap:round;stroke-linejoin:round;stroke-width:0.5px"></path><path d="M196.65,253.15a3.29,3.29,0,0,1,.9.76c.51.67,1.58,1.92,1.18,2.85s-2-1.12-2.23-1.37a3.29,3.29,0,0,1-.86-1.54C195.61,252.86,196.13,252.86,196.65,253.15Z" style="fill:#263238"></path><path d="M207.7,235.88s0,7.21,3.92,9.62a7.25,7.25,0,0,1-1.25-4.63s2.17,8,5,8.81,2,3.78,4.87,3.79,4.07-5.54,4.07-5.54,1.4.9,2-2.2-.43-3.88-1.26-5.42,2.6-3,1.79-6.22-6.76-10.56-11.34-6.33c0,0-1.41-4.86-7-3.74-2.74.55-2.39,2.56-2.39,2.56s-1.44-2.72-6.64-.79-6.47,8.36-6.47,8.36-1.36-.87-2.25,3a8.31,8.31,0,0,0,.66,6.19S199.55,233.59,207.7,235.88Z" style="fill:#263238"></path><path d="M192.45,237a7.63,7.63,0,0,0-.59,5.81c.78,2.56,3.43,2.4,5.09.48,1.47-1.71,2.9-5.15,1.18-7.13S193.65,234.79,192.45,237Z" style="fill:#ebb376"></path><path d="M224.21,239.8s3.2,2.66,4.6.36" style="fill:none;stroke:#263238;stroke-linecap:round;stroke-linejoin:round;stroke-width:0.5px"></path><path d="M223.36,246.32s2.22,3.68-.72,6.78" style="fill:none;stroke:#263238;stroke-linecap:round;stroke-linejoin:round;stroke-width:0.5px"></path><path d="M206.23,227.54a5.53,5.53,0,0,1,.68-4.69" style="fill:none;stroke:#263238;stroke-linecap:round;stroke-linejoin:round;stroke-width:0.5px"></path><path d="M206.05,226.58s-6.15-4.64-11.56,1.53" style="fill:none;stroke:#263238;stroke-linecap:round;stroke-linejoin:round;stroke-width:0.5px"></path><path d="M215.45,274.28l-1.56,1.14.09.07C214.48,275.09,215,274.69,215.45,274.28Z" style="opacity:0.2;isolation:isolate"></path><path d="M161,283.56s18.46,29.14,39.3,21.63q1.47-.53,2.76-1.08c-2.83-5.85-3.09-13.19-2.26-19.87-2.52,2.76-6,5.55-9.29,5.18C185.16,288.7,161,283.56,161,283.56Z" style="opacity:0.2;isolation:isolate"></path><path d="M156.59,267.15c3.86-6.8,34.58,17.8,37.9,16S215.41,255,215.41,255l8.88,4.4s-15,31.7-21,37.54c-7.67,7.51-37.42-5.21-41.71-10.45S154,271.71,156.59,267.15Z" style="fill:#ACE594"></path><path d="M156.59,267.15c3.86-6.8,34.58,17.8,37.9,16S215.41,255,215.41,255l8.88,4.4s-15,31.7-21,37.54c-7.67,7.51-37.42-5.21-41.71-10.45S154,271.71,156.59,267.15Z" style="opacity:0.1;isolation:isolate"></path><path d="M212.42,306.57l24,4.5s-7.83,10.28-9.91,17.81c0,0-11.82,4.89-15.4,14.42l-22.52-8.25s3-8.73,16.14-13.83C204.69,321.22,206,310.2,212.42,306.57Z" style="fill:#ACE594"></path><path d="M212.42,306.57l24,4.5s-7.83,10.28-9.91,17.81c0,0-11.82,4.89-15.4,14.42l-22.52-8.25s3-8.73,16.14-13.83C204.69,321.22,206,310.2,212.42,306.57Z" style="opacity:0.30000000000000004;isolation:isolate"></path><path d="M233.41,307.59l.23,1.8,1.07-.29-.4,2.08a35.85,35.85,0,0,0-8.63,16.91s-10.87,6.15-14.79,13.87l-22.95-8.46.46-.69-1.23-.23L205.59,320l4.33-13.41Z" style="fill:#fff"></path><path d="M233.41,307.59l.23,1.8,1.07-.29-.4,2.08a35.85,35.85,0,0,0-8.63,16.91s-10.87,6.15-14.79,13.87l-22.95-8.46.46-.69-1.23-.23L205.59,320l4.33-13.41Z" style="opacity:0.2;isolation:isolate"></path><path d="M225.68,328.09s-7.18,2-14.27,13.41l-24.86-9.87s5.57-10,16.41-12.1c0,0,1.13-10.1,6.62-15l2.08.27,21.75,2.81S225.59,321.88,225.68,328.09Z" style="fill:#fff"></path><path d="M225.68,328.09,203,319.53s1.13-10.1,6.62-15l2.08.27c-1,2.57-1.69,6.16-.13,9.32C214.37,319.87,225.68,328.09,225.68,328.09Z" style="opacity:0.1;isolation:isolate"></path></g></g></svg>